<svg width="1074" height="1053" viewBox="0 0 1074 1053" fill="none" xmlns="http://www.w3.org/2000/svg">
<path d="M1048.23 716.707L977.317 593.887C975.511 590.755 973.106 588.01 970.239 585.807C967.372 583.605 964.099 581.989 960.607 581.053C957.115 580.116 953.473 579.876 949.889 580.347C946.304 580.818 942.848 581.991 939.717 583.798C936.586 585.605 933.841 588.012 931.641 590.88C929.44 593.748 927.826 597.022 926.891 600.514C925.956 604.007 925.718 607.649 926.191 611.233C926.664 614.817 927.838 618.273 929.647 621.403L1001.61 746.035C1021.76 780.944 1025.16 824.312 1006.49 860.036C996.937 878.665 982.407 894.28 964.513 905.145C946.618 916.01 926.061 921.699 905.127 921.581H643.064V872.731C643.064 867.898 641.792 863.151 639.376 858.966C636.96 854.781 633.485 851.306 629.3 848.89C625.115 846.474 620.368 845.201 615.536 845.201C610.704 845.201 605.956 846.473 601.771 848.889L469.493 925.261C465.308 927.677 461.833 931.152 459.416 935.337C457 939.522 455.728 944.269 455.728 949.101C455.728 953.934 457 958.681 459.416 962.866C461.833 967.051 465.308 970.526 469.493 972.942L601.771 1049.31C605.956 1051.73 610.703 1053 615.535 1053C620.368 1053 625.115 1051.73 629.3 1049.31C633.485 1046.9 636.96 1043.42 639.376 1039.24C641.792 1035.05 643.064 1030.3 643.064 1025.47V976.613H905.127C935.357 976.788 965.072 968.785 991.124 953.449C1017.18 938.114 1038.6 916.018 1053.12 889.502C1082.91 835.932 1078.88 769.789 1048.23 716.707Z" fill="black"/>
<path d="M541.792 55.1585C582.071 56.8483 617.934 81.4823 638.093 116.396L766.686 339.121L766.688 339.123L724.467 363.5C720.273 365.922 716.79 369.404 714.368 373.598C711.947 377.792 710.672 382.549 710.672 387.392C710.672 392.235 711.947 396.992 714.368 401.186C716.79 405.38 720.273 408.863 724.467 411.284L856.567 487.551C860.761 489.973 865.518 491.247 870.361 491.247C875.204 491.248 879.961 489.973 884.155 487.551C888.349 485.13 891.832 481.647 894.253 477.453C896.674 473.259 897.949 468.502 897.949 463.659L897.947 311.125C897.947 306.282 896.673 301.525 894.251 297.331C891.83 293.137 888.347 289.654 884.154 287.233C879.96 284.811 875.202 283.536 870.359 283.537C865.517 283.537 860.759 284.812 856.565 287.233L814.354 311.603L686.79 90.6597C656.13 37.5589 600.832 1.00217 539.524 0.0415856C509.309 -0.631471 479.475 6.87637 453.178 21.7705C426.881 36.6647 405.099 58.3911 390.139 84.6505L315.749 213.499C312.104 219.82 311.119 227.329 313.01 234.377C314.901 241.424 319.513 247.432 325.832 251.079C332.152 254.727 339.661 255.716 346.709 253.828C353.757 251.941 359.767 247.332 363.418 241.015L437.81 112.166C448.175 93.9776 463.381 79.0197 481.738 68.9555C500.095 58.8914 520.883 54.1154 541.792 55.1585Z" fill="black"/>
<path d="M317.119 921.581H173.291C134.44 921.581 96.3098 904.408 74.3704 872.346C61.9651 854.595 54.906 833.661 54.0288 812.022C53.1517 790.384 58.4932 768.947 69.421 750.25L200.457 523.298L242.944 547.828C247.11 550.234 251.836 551.5 256.646 551.5C261.457 551.5 266.182 550.234 270.349 547.829C274.515 545.424 277.974 541.964 280.379 537.798C282.784 533.632 284.051 528.906 284.05 524.096V370.92C284.05 366.11 282.784 361.384 280.379 357.218C277.973 353.052 274.514 349.593 270.348 347.188C266.182 344.783 261.457 343.516 256.646 343.516C251.836 343.516 247.11 344.782 242.944 347.188L110.291 423.777C106.125 426.182 102.666 429.642 100.26 433.808C97.8549 437.974 96.5887 442.699 96.5887 447.51C96.5887 452.32 97.8549 457.046 100.26 461.212C102.666 465.378 106.125 468.837 110.291 471.242L152.79 495.779L152.788 495.781L25.2308 716.708C-5.41747 769.79 -9.44666 835.933 20.345 889.503C34.8636 916.019 56.2833 938.115 82.3357 953.45C108.388 968.786 138.103 976.789 168.333 976.614H317.119C324.417 976.614 331.415 973.715 336.576 968.555C341.736 963.394 344.635 956.396 344.635 949.098C344.635 941.8 341.736 934.801 336.576 929.641C331.415 924.481 324.417 921.582 317.119 921.582L317.119 921.581Z" fill="black"/>
<path d="M692.34 731.993L688.151 405.961C688.033 396.875 684.386 388.377 677.878 382.035C671.37 375.692 662.777 372.266 653.696 372.381L647.859 372.456L647.723 356.685C647.585 345.978 644.39 338.042 638.224 333.101C632.175 328.251 624 326.862 613.938 328.97L409.052 371.599C393.412 374.875 382.208 388.849 382.414 404.826L386.603 730.904L386.604 730.904L386.667 735.921C386.785 745.006 390.433 753.504 396.939 759.845C401.307 764.102 406.611 767.047 412.373 768.488C415.198 769.194 418.133 769.539 421.122 769.501L658.759 766.449C677.517 766.206 692.582 750.75 692.34 731.993ZM617.125 344.23C619.753 343.682 623.046 343.3 625.723 343.97C626.757 344.228 627.699 344.642 628.474 345.266C631.407 347.615 632.084 352.883 632.136 356.899L632.269 372.656L521.771 374.075L470.528 374.733L617.125 344.23ZM658.559 750.857L420.922 753.909C416 753.975 411.349 752.115 407.823 748.68C404.298 745.244 402.321 740.64 402.259 735.718L402.196 730.702L398.07 409.686C398.007 404.763 399.863 400.111 403.301 396.585C406.737 393.061 411.34 391.084 416.262 391.021L653.898 387.969C655.516 387.947 657.107 388.134 658.638 388.517C661.758 389.297 664.631 390.893 666.998 393.199C670.523 396.634 672.5 401.239 672.562 406.16L676.75 732.193C676.88 742.354 668.72 750.726 658.559 750.857Z" fill="#29BB89"/>
<path d="M516.057 610.017C523.367 611.845 530.969 612.705 538.706 612.537C540.278 612.503 541.836 612.418 543.383 612.3C543.642 612.28 543.898 612.247 544.156 612.223C545.487 612.109 546.81 611.97 548.122 611.796C548.273 611.776 548.422 611.749 548.571 611.73C550.011 611.53 551.438 611.295 552.853 611.025C552.884 611.019 552.917 611.013 552.947 611.006C556.056 610.409 559.1 609.642 562.077 608.716C562.083 608.713 562.091 608.712 562.097 608.71C582.065 602.499 598.842 589.146 609.514 571.696C609.703 571.39 609.893 571.085 610.077 570.775C610.459 570.132 610.83 569.483 611.196 568.83C611.421 568.426 611.64 568.023 611.86 567.616C612.199 566.985 612.537 566.357 612.86 565.717C613.111 565.22 613.347 564.716 613.59 564.214C614.061 563.235 614.514 562.248 614.949 561.25C615.201 560.673 615.454 560.096 615.692 559.511C615.92 558.954 616.138 558.394 616.354 557.832C616.592 557.21 616.823 556.585 617.047 555.957C617.234 555.434 617.423 554.913 617.601 554.385C617.93 553.402 618.241 552.413 618.535 551.416C618.665 550.977 618.784 550.534 618.906 550.092C619.152 549.209 619.386 548.321 619.602 547.426C619.714 546.965 619.817 546.501 619.922 546.038C620.105 545.221 620.276 544.399 620.436 543.573C620.519 543.141 620.607 542.711 620.683 542.276C620.901 541.053 621.099 539.822 621.263 538.581C621.278 538.453 621.29 538.322 621.306 538.195C621.452 537.046 621.572 535.89 621.672 534.728C621.706 534.325 621.732 533.921 621.76 533.516C621.828 532.575 621.878 531.631 621.914 530.682C621.93 530.29 621.947 529.896 621.957 529.502C621.989 528.195 621.999 526.881 621.971 525.56C621.943 524.241 621.874 522.931 621.787 521.628C621.76 521.24 621.725 520.854 621.695 520.468C621.617 519.508 621.522 518.553 621.414 517.602C621.37 517.219 621.329 516.837 621.279 516.456C621.115 515.186 620.933 513.923 620.712 512.671C620.697 512.579 620.676 512.488 620.658 512.397C620.449 511.232 620.215 510.079 619.961 508.931C619.871 508.529 619.775 508.13 619.68 507.731C619.473 506.858 619.251 505.99 619.017 505.127C618.91 504.733 618.806 504.34 618.693 503.949C618.356 502.77 618 501.599 617.613 500.443C617.546 500.247 617.471 500.053 617.403 499.857C617.068 498.876 616.714 497.904 616.343 496.938C616.18 496.518 616.013 496.1 615.843 495.682C615.535 494.919 615.215 494.16 614.885 493.405C614.708 492.997 614.532 492.588 614.348 492.183C613.862 491.123 613.363 490.072 612.838 489.036C612.69 488.746 612.532 488.462 612.381 488.173C611.961 487.364 611.529 486.562 611.083 485.77C610.843 485.346 610.598 484.927 610.351 484.507C609.962 483.841 609.562 483.183 609.154 482.529C608.904 482.127 608.657 481.724 608.4 481.325C607.777 480.362 607.141 479.409 606.48 478.474C606.055 477.608 605.484 476.831 604.786 476.184C604.035 475.191 603.263 474.217 602.469 473.258C602.442 473.226 602.413 473.192 602.387 473.159C601.607 472.22 600.809 471.3 599.991 470.396C599.951 470.351 599.911 470.306 599.871 470.262C599.053 469.361 598.217 468.479 597.362 467.614C597.327 467.58 597.293 467.545 597.259 467.511C596.388 466.633 595.498 465.772 594.59 464.933C594.587 464.93 594.583 464.927 594.579 464.922C583.419 454.609 569.52 447.256 554.144 444.066C554.143 444.066 554.142 444.066 554.14 444.065C554.076 444.053 554.013 444.041 553.951 444.025C552.36 443.7 550.755 443.413 549.133 443.179C549.114 443.175 549.095 443.172 549.077 443.169C547.65 442.963 546.214 442.792 544.765 442.658C544.631 442.646 544.499 442.627 544.364 442.616C543.039 442.5 541.707 442.42 540.367 442.364C540.126 442.354 539.888 442.333 539.647 442.325C538.103 442.274 536.553 442.26 534.99 442.293C533.708 442.322 532.435 442.389 531.169 442.474C530.772 442.501 530.376 442.531 529.981 442.562C529.048 442.639 528.122 442.73 527.197 442.835C526.574 442.906 525.953 442.985 525.333 443.069C524.534 443.18 523.737 443.294 522.944 443.426C522.227 443.545 521.514 443.677 520.803 443.813C520.463 443.879 520.124 443.949 519.784 444.018C517.156 444.555 514.575 445.211 512.042 445.982C511.994 445.994 511.95 446.013 511.904 446.025C510.563 446.436 509.237 446.88 507.925 447.354C507.904 447.362 507.885 447.369 507.864 447.376C498.734 450.691 490.342 455.518 482.978 461.555C482.952 461.576 482.926 461.598 482.9 461.617C476.403 466.956 470.715 473.226 466.036 480.226C465.921 480.386 465.806 480.543 465.705 480.714C465.704 480.715 465.703 480.716 465.703 480.717C465.236 481.426 464.785 482.148 464.34 482.872C464.166 483.153 463.992 483.434 463.822 483.719C463.4 484.422 462.987 485.128 462.584 485.844C462.425 486.126 462.273 486.41 462.118 486.694C460.871 488.974 459.726 491.313 458.688 493.71C458.499 494.146 458.309 494.583 458.127 495.025C457.859 495.673 457.599 496.323 457.347 496.981C457.148 497.495 456.961 498.013 456.773 498.532C456.55 499.147 456.323 499.76 456.114 500.382C455.762 501.429 455.428 502.486 455.115 503.552C454.965 504.066 454.832 504.586 454.692 505.103C454.499 505.808 454.313 506.515 454.138 507.223C454.008 507.755 453.885 508.287 453.764 508.821C453.594 509.582 453.436 510.348 453.286 511.116C453.194 511.583 453.099 512.048 453.015 512.518C452.8 513.724 452.608 514.937 452.444 516.159C452.408 516.431 452.384 516.707 452.352 516.979C452.226 517.994 452.118 519.012 452.029 520.037C451.992 520.467 451.962 520.901 451.931 521.333C451.865 522.254 451.815 523.179 451.78 524.108C451.764 524.512 451.746 524.916 451.735 525.32C451.704 526.63 451.693 527.945 451.721 529.267C452.217 552.004 461.537 573.186 477.965 588.914C488.811 599.294 501.886 606.474 516.057 610.017ZM499.544 586.139C498.692 585.595 497.854 585.024 497.022 584.441C496.754 584.252 496.489 584.057 496.221 583.865C495.638 583.444 495.062 583.012 494.49 582.571C494.213 582.358 493.935 582.147 493.662 581.929C492.971 581.38 492.288 580.816 491.616 580.238C491.503 580.141 491.386 580.05 491.274 579.951L496.933 579.829C497.755 581.947 498.62 584.053 499.546 586.14C499.544 586.138 499.544 586.139 499.544 586.139ZM503.005 535.952L529.226 535.381L529.84 563.517L507.907 563.996C505.224 554.91 503.582 545.556 503.005 535.952ZM530.556 596.673C529.178 596.551 527.812 596.383 526.451 596.181C526.321 596.161 526.19 596.141 526.06 596.121C524.695 595.91 523.339 595.665 521.995 595.375C518.796 590.185 516.009 584.876 513.606 579.464L530.18 579.103L530.563 596.675C530.561 596.674 530.559 596.673 530.556 596.673ZM550.941 595.525C550.94 595.525 550.94 595.525 550.939 595.524C549.357 595.848 547.761 596.12 546.151 596.334L545.767 578.765L559.254 578.471C556.96 584.066 554.218 589.755 550.941 595.525ZM564.61 562.759L545.43 563.177L544.815 535.041L569 534.514C568.648 543.444 567.298 552.905 564.61 562.759ZM572.533 587.127C573.846 584.09 575.023 581.083 576.096 578.105L584.626 577.919C580.897 581.446 576.852 584.537 572.533 587.127ZM606.108 533.704C605.998 534.933 605.856 536.155 605.682 537.369C605.671 537.445 605.658 537.521 605.649 537.597C605.48 538.749 605.284 539.892 605.06 541.029C605.041 541.121 605.023 541.213 605.004 541.304C604.775 542.444 604.517 543.574 604.231 544.697C604.213 544.764 604.197 544.831 604.179 544.899C603.875 546.077 603.542 547.245 603.178 548.401C603.178 548.402 603.177 548.404 603.177 548.405C601.678 553.151 599.67 557.722 597.177 562.05L580.806 562.407C583.181 552.503 584.352 543.042 584.654 534.173L606.108 533.704ZM595.307 489.788C596.656 491.875 597.894 494.037 599.017 496.27C599.027 496.29 599.036 496.307 599.045 496.326C600.724 499.675 602.143 503.177 603.271 506.81C603.272 506.814 603.275 506.819 603.276 506.824C604.407 510.467 605.245 514.239 605.767 518.116C605.766 518.117 605.766 518.117 605.766 518.117L584.328 518.585C583.637 509.527 582.143 501.315 580.326 494.173C579.976 492.801 579.608 491.462 579.231 490.141L595.307 489.788ZM570.303 466.47C571.32 467.03 572.32 467.616 573.305 468.225C573.334 468.244 573.367 468.263 573.397 468.281C576.385 470.136 579.226 472.209 581.894 474.482C581.894 474.483 581.897 474.484 581.897 474.485L573.91 474.659C572.717 471.717 571.502 468.985 570.303 466.47ZM568.636 518.926L544.474 519.452L543.851 490.909L562.97 490.492C565.593 498.79 567.737 508.358 568.636 518.926ZM543.144 458.182C544.812 458.333 546.465 458.537 548.098 458.803C548.122 458.807 548.144 458.809 548.168 458.813C550.111 461.744 553.522 467.315 557.035 475.027L543.514 475.322L543.139 458.182C543.14 458.182 543.143 458.182 543.144 458.182ZM519.087 460.184C519.088 460.183 519.091 460.183 519.093 460.183C520.412 459.835 521.749 459.527 523.097 459.255C523.207 459.233 523.315 459.211 523.424 459.189C524.782 458.922 526.155 458.689 527.542 458.502C527.544 458.503 527.547 458.501 527.551 458.501L527.925 475.662L512.242 476.003C514.925 468.672 517.538 463.198 519.087 460.184ZM528.265 491.249L528.887 519.792L502.976 520.357C503.31 514.388 504.008 508.338 505.115 502.2C505.778 498.53 506.554 495.028 507.397 491.706L528.265 491.249ZM497.869 469.864C497.113 471.902 496.352 474.07 495.604 476.367L489.541 476.499C492.14 474.081 494.924 471.867 497.869 469.864ZM467.596 521.125C467.709 519.871 467.859 518.627 468.038 517.392C468.057 517.258 468.08 517.127 468.1 516.994C468.267 515.889 468.46 514.793 468.679 513.704C468.717 513.514 468.757 513.324 468.798 513.134C469.014 512.102 469.253 511.081 469.514 510.066C469.568 509.854 469.623 509.642 469.679 509.432C469.948 508.433 470.239 507.442 470.55 506.46C470.613 506.258 470.675 506.056 470.74 505.853C471.071 504.837 471.428 503.833 471.807 502.837C471.863 502.688 471.914 502.537 471.972 502.39C473.319 498.908 474.936 495.559 476.804 492.369L491.277 492.053C490.78 494.248 490.311 496.502 489.883 498.823C488.529 506.172 487.7 513.471 487.374 520.693L467.597 521.125C467.596 521.128 467.597 521.126 467.596 521.125ZM470.347 547.811C470.327 547.748 470.307 547.683 470.29 547.621C469.953 546.51 469.646 545.39 469.367 544.26C469.345 544.17 469.323 544.079 469.3 543.989C469.026 542.862 468.78 541.725 468.561 540.583C468.548 540.508 468.533 540.435 468.519 540.36C468.294 539.154 468.096 537.94 467.933 536.716L487.496 536.289C488.056 545.842 489.568 555.209 491.954 564.341L478.092 564.644C474.758 559.4 472.158 553.745 470.347 547.811Z" fill="#29BB89"/>
<path d="M594.948 652.452L481.987 653.903C466.096 654.108 453.334 667.203 453.537 683.093C453.636 690.789 456.727 697.99 462.239 703.362C465.939 706.969 470.432 709.462 475.314 710.682C477.706 711.28 480.193 711.573 482.725 711.541L595.684 710.09C603.384 709.991 610.583 706.9 615.955 701.387C621.327 695.875 624.235 688.6 624.135 680.901C623.932 665.012 610.836 652.255 594.948 652.452Z" fill="#29BB89"/>
<path d="M366.956 551.212L366.24 445.269C366.21 440.963 362.687 437.494 358.39 437.527C354.086 437.558 350.62 441.069 350.647 445.376L351.364 551.321C351.389 554.952 353.894 557.987 357.262 558.829C357.887 558.985 358.541 559.068 359.213 559.063C363.518 559.032 366.984 555.519 366.956 551.212Z" fill="#29BB89"/>
<path d="M359.549 608.951C363.854 608.921 367.32 605.408 367.293 601.101L367.176 583.954C367.144 579.647 363.629 576.182 359.326 576.211C355.023 576.241 351.555 579.753 351.584 584.061L351.7 601.208C351.725 604.841 354.23 607.875 357.598 608.717C358.223 608.874 358.876 608.955 359.549 608.951Z" fill="#29BB89"/>
<path d="M367.502 632.284C367.472 627.979 363.95 624.514 359.653 624.542C355.348 624.572 351.882 628.086 351.91 632.392L352.343 696.313C352.368 699.945 354.873 702.981 358.241 703.823C358.867 703.979 359.519 704.06 360.193 704.056C364.497 704.025 367.963 700.512 367.935 696.206L367.502 632.284Z" fill="#29BB89"/>
<path d="M705.919 597.644L706.136 614.793C706.184 618.409 708.684 621.419 712.035 622.257C712.672 622.416 713.342 622.497 714.031 622.489C718.335 622.433 721.782 618.899 721.727 614.594L721.509 597.446C721.454 593.142 717.922 589.697 713.616 589.75C709.31 589.806 705.864 593.339 705.919 597.644Z" fill="#29BB89"/>
<path d="M705.52 566.465C705.567 570.081 708.067 573.091 711.419 573.929C712.057 574.088 712.724 574.17 713.415 574.16C717.719 574.106 721.166 570.571 721.11 566.267L720.296 502.349C720.24 498.045 716.703 494.603 712.402 494.653C708.096 494.707 704.65 498.243 704.705 502.546L705.52 566.465Z" fill="#29BB89"/>
</svg>
